<svg width="154" height="41" viewBox="0 0 154 41" fill="none" xmlns="http://www.w3.org/2000/svg">
<path d="M15.0337 33.0316C14.8083 33.2571 14.5211 33.4107 14.2084 33.4729C13.8958 33.5352 13.5717 33.5032 13.2772 33.3812C12.9827 33.2591 12.731 33.0524 12.5539 32.7872C12.3768 32.522 12.2822 32.2103 12.2822 31.8913C12.2822 31.5724 12.3768 31.2606 12.5539 30.9954C12.731 30.7302 12.9827 30.5235 13.2772 30.4014C13.5717 30.2794 13.8958 30.2474 14.2084 30.3097C14.5211 30.3719 14.8083 30.5255 15.0337 30.751C15.3359 31.0534 15.5057 31.4636 15.5057 31.8913C15.5057 32.319 15.3359 32.7292 15.0337 33.0316Z" fill="#E1D11E"/>
<path d="M13.4305 23.0766C13.1798 22.6634 12.9048 22.2653 12.6072 21.8845C12.7127 21.4844 12.8361 21.1033 12.9702 20.7267L13.0147 20.5925C13.0491 20.5053 13.0859 20.422 13.1177 20.338C13.1495 20.2541 13.1781 20.1879 13.2074 20.1116L13.2442 20.1644C13.3154 20.2668 13.3892 20.3673 13.4547 20.4691L13.531 20.5874C13.7572 20.9341 13.9602 21.2954 14.1388 21.6688C13.8787 22.1253 13.6425 22.595 13.4312 23.076" fill="white"/>
<path d="M12.311 27.5754C12.0861 25.8664 12.1473 24.1318 12.4922 22.443C12.7558 22.8009 13.0007 23.1723 13.2259 23.5556C12.9668 24.1909 12.7481 24.8419 12.571 25.5047C12.4282 26.1867 12.3413 26.8792 12.311 27.5754" fill="white"/>
<path d="M14.389 21.2318C14.2364 20.9328 14.0654 20.6408 13.8842 20.3584L13.8053 20.2382C13.7348 20.13 13.6585 20.0219 13.5822 19.9201L13.5612 19.8889C13.5167 19.8253 13.4696 19.7617 13.4188 19.6936L13.3953 19.6644C13.6667 19.067 13.9812 18.4902 14.3362 17.9385L14.4335 17.7884C14.52 17.6612 14.6122 17.5307 14.7037 17.4016C14.7673 17.3087 14.8353 17.2178 14.904 17.1281C14.9803 17.025 15.0617 16.9232 15.1405 16.8227C15.2327 16.7101 15.3224 16.5988 15.4139 16.4919L15.6377 16.2375C15.7426 16.1217 15.8532 16.0059 15.9613 15.8933C16.0344 15.8144 16.1082 15.7406 16.1851 15.6643C16.2983 15.5511 16.4159 15.4378 16.5348 15.3303C16.6137 15.2565 16.695 15.1802 16.7739 15.1064C16.8845 15.0116 16.992 14.9194 17.1032 14.8297C17.3156 14.6478 17.5394 14.4722 17.7683 14.3062C18.0032 15.117 18.1718 15.9457 18.2725 16.7839C16.7261 18.0262 15.4113 19.5322 14.389 21.2324" fill="white"/>
<path d="M20.1739 12.803C20.4201 13.5652 20.6114 14.3442 20.7461 15.1338C20.0139 15.5323 19.3125 15.9853 18.648 16.4888C18.5337 15.6624 18.3588 14.8455 18.1248 14.0447C18.7764 13.5799 19.462 13.1649 20.1758 12.803" fill="white"/>
<path d="M26.2083 25.6912C26.132 25.7675 26.0583 25.8413 25.9795 25.9151C25.8663 26.0233 25.7506 26.1333 25.6355 26.2389L25.3812 26.4628C25.2737 26.5551 25.1631 26.6448 25.0499 26.7364C24.9501 26.8153 24.8478 26.8973 24.7454 26.9737C24.6557 27.0424 24.5642 27.1079 24.472 27.1734C24.3448 27.2657 24.2145 27.3573 24.0854 27.4444L23.9354 27.5411C23.1805 28.0291 22.378 28.4392 21.5403 28.765C21.4532 28.7987 21.3693 28.8286 21.2829 28.8649L21.1487 28.9094C20.6986 29.0697 20.2382 29.2141 19.755 29.335H19.673C17.9112 29.7233 16.0953 29.8008 14.3069 29.564C15.0026 29.5353 15.6946 29.4483 16.3758 29.3038C19.8238 28.388 22.8844 26.3832 25.1026 23.5876C27.3207 20.792 28.5779 17.3549 28.6873 13.7871C28.6873 13.5899 28.6873 13.3927 28.6771 13.1923C28.48 13.1847 28.2823 13.1822 28.0827 13.1822C25.6649 13.225 23.2892 13.8217 21.1379 14.9264C21.0004 14.1415 20.8053 13.3678 20.5542 12.6115C22.6641 11.6063 24.9185 10.9381 27.2352 10.6312C28.6586 10.4215 30.0956 10.3169 31.5344 10.3182V10.3341H31.5509C31.5509 11.7737 31.4464 13.2113 31.2381 14.6357C30.6437 18.7865 29.1788 22.2312 27.047 24.7752L26.7678 25.1009C26.6973 25.1829 26.6178 25.2618 26.544 25.3401C26.434 25.4616 26.3234 25.5773 26.2103 25.6906" fill="white"/>
<path d="M8.96181 18.6541C8.27506 18.2365 7.54835 17.8885 6.79248 17.6153C6.79248 17.4575 6.79247 17.3074 6.80265 17.1522C6.80265 17.0441 6.80773 16.9308 6.816 16.8227C6.82426 16.6783 6.83699 16.539 6.84716 16.3971C6.8656 16.1624 6.89484 15.9283 6.92599 15.6923C7.67141 15.9472 8.39567 16.2603 9.09214 16.6287C9.00793 17.3008 8.9642 17.9774 8.96117 18.6548" fill="white"/>
<path d="M12.4694 28.7987C11.0384 27.6998 9.80946 26.36 8.83774 24.8393L8.78052 24.7757C8.53117 24.3597 8.30306 23.9312 8.09705 23.492L8.03346 23.3648C7.99468 23.2783 7.96289 23.1943 7.92347 23.1071C7.56093 22.2852 7.28251 21.4286 7.09248 20.5505C7.0823 20.4926 7.06642 20.4341 7.05561 20.3768C7.02382 20.2242 6.99774 20.0664 6.97358 19.9112C6.95514 19.7979 6.93417 19.6873 6.92082 19.574C6.89984 19.4468 6.88712 19.3196 6.87631 19.1923C6.85851 19.0479 6.84515 18.9086 6.8318 18.7636C6.82417 18.6503 6.81909 18.5397 6.81082 18.4264C6.80256 18.3132 6.80318 18.1821 6.7981 18.0613C7.55667 18.3452 8.28352 18.7077 8.9668 19.1427C9.02377 21.9553 9.78916 24.708 11.1921 27.146C11.5715 27.732 11.9992 28.2852 12.4707 28.8" fill="white"/>
<path d="M15.2886 28.7986C15.76 28.2841 16.1875 27.7308 16.5665 27.1447C18.3383 24.0611 19.0859 20.4942 18.7015 16.9582C18.6856 16.8004 18.6678 16.6452 18.6462 16.4874C18.5319 15.661 18.357 14.8441 18.1229 14.0434C18.0803 13.9009 18.0358 13.7616 17.9913 13.6223C17.2495 11.3147 15.9894 9.2078 14.3075 7.46314C14.1683 7.32383 14.0265 7.18707 13.879 7.0503C13.7315 7.18707 13.5897 7.32383 13.4498 7.46314C11.1526 9.85879 9.65279 12.9071 9.15629 16.1897C8.45966 15.8257 7.7351 15.5179 6.9895 15.2692C7.59589 11.9812 8.98994 8.88921 11.0522 6.25829C11.9107 5.1034 12.8527 4.0131 13.8707 2.99617L13.879 3.00445L13.8892 2.99426C14.9072 4.01308 15.8495 5.10507 16.7083 6.26148C18.131 8.12178 19.255 10.1927 20.0399 12.3996C20.0869 12.5306 20.1346 12.668 20.174 12.8023C20.4202 13.5645 20.6114 14.3435 20.7462 15.1331C20.7698 15.2775 20.7939 15.4168 20.8098 15.5625C20.8524 15.8411 20.8836 16.1197 20.9071 16.3958C20.9173 16.5383 20.9332 16.6802 20.9383 16.822C20.9465 16.9302 20.9491 17.0434 20.9516 17.1509C20.9599 17.3119 20.9649 17.4747 20.9649 17.6325C20.9649 17.7432 20.965 17.8456 20.9599 17.9505C20.9599 18.1087 20.9546 18.2665 20.944 18.4238C20.9357 18.5371 20.9306 18.6478 20.9223 18.761C20.9122 18.9035 20.8963 19.0447 20.8804 19.1872C20.867 19.3144 20.8543 19.4448 20.8359 19.574C20.82 19.684 20.799 19.7947 20.7805 19.9079C20.757 20.0632 20.7303 20.2209 20.6985 20.3736C20.6884 20.4309 20.6725 20.4894 20.6623 20.5473C20.4738 21.4271 20.1944 22.285 19.8288 23.1071C19.7925 23.1911 19.7601 23.2757 19.7207 23.3616L19.6571 23.4888C19.4517 23.9282 19.2235 24.3567 18.9736 24.7725L18.9158 24.8361C17.9443 26.3568 16.7156 27.6966 15.2847 28.7955" fill="white"/>
<path d="M11.9309 29.522C12.4656 29.6364 13.009 29.7049 13.5553 29.7268C12.1502 29.915 10.7229 29.8545 9.33875 29.548H9.27516C8.90422 29.4549 8.53817 29.3432 8.17841 29.2134L8.07542 29.1797C8.00739 29.153 7.94127 29.1237 7.8726 29.0976C7.21354 28.842 6.58194 28.5203 5.98745 28.1377L5.86921 28.0614C5.77002 27.9927 5.66702 27.9221 5.5672 27.8483C5.49281 27.7955 5.42223 27.7452 5.35039 27.6905C5.26901 27.6301 5.19017 27.5671 5.11197 27.5035C5.03376 27.4399 4.93776 27.3616 4.85129 27.2904C4.78771 27.2299 4.71714 27.1727 4.65419 27.1142C4.55946 27.0302 4.47044 26.9456 4.37888 26.8597C4.32103 26.8025 4.25682 26.7439 4.19896 26.6867C4.10931 26.597 4.02348 26.5047 3.93892 26.41C3.88106 26.3463 3.81812 26.2827 3.7609 26.2191C3.68651 26.1351 3.61594 26.048 3.54537 25.9615C1.72466 23.6653 0.583298 20.9047 0.250669 17.9926C0.0843431 16.8726 0.00145185 15.7418 0.00269942 14.6096H0.012886V14.5988C1.14439 14.6006 2.27432 14.6833 3.39405 14.8462C4.45625 14.9951 5.50396 15.2337 6.52598 15.5593C6.66288 15.6017 6.79703 15.6465 6.92843 15.6935C7.67401 15.9486 8.39848 16.2617 9.09522 16.6299C9.22662 16.6986 9.35528 16.7697 9.48116 16.8431C10.145 17.2189 10.7736 17.6539 11.3593 18.1427C11.4458 18.2133 11.5297 18.2871 11.6136 18.3609C11.6772 18.4213 11.7408 18.4792 11.8044 18.5371C11.8959 18.6242 11.9881 18.7108 12.0784 18.8005C12.1356 18.8583 12.196 18.9188 12.2513 18.9792C12.341 19.0689 12.4249 19.158 12.5088 19.2527C12.566 19.3164 12.6245 19.3844 12.6818 19.4531C12.7561 19.5371 12.8267 19.6236 12.8979 19.7108L12.9113 19.7286C12.9717 19.7998 13.0289 19.873 13.0849 19.95C13.1268 20.0021 13.1669 20.0581 13.2057 20.1134L13.2425 20.1656C13.3144 20.2687 13.3875 20.3685 13.453 20.471L13.5293 20.5886C13.7547 20.9358 13.9577 21.297 14.1371 21.6701C14.2125 21.8198 14.2831 21.975 14.3488 22.1357C14.399 22.2439 14.4461 22.3597 14.4912 22.4729C14.5173 22.541 14.5466 22.6071 14.5701 22.6777L14.605 22.7808C14.7322 23.1332 14.846 23.4964 14.9414 23.8749V23.9436C15.2483 25.3278 15.3096 26.7552 15.1226 28.1606C15.1006 27.6138 15.0323 27.0699 14.9185 26.5346C14.638 25.4839 14.2262 24.4727 13.6927 23.5251C13.6087 23.373 13.5216 23.2229 13.4295 23.0798C13.179 22.6665 12.9041 22.2686 12.6061 21.8883C12.5012 21.7515 12.3937 21.6173 12.2799 21.4881C11.4432 20.4861 10.4602 19.616 9.36416 18.9073C9.23431 18.8171 9.09999 18.7334 8.96171 18.6567C8.27483 18.2393 7.54814 17.8913 6.79238 17.6179C6.65378 17.5625 6.51389 17.5129 6.37465 17.4677C5.19599 17.0811 3.96604 16.8735 2.72583 16.852C2.57324 16.852 2.41809 16.8545 2.26041 16.8596C2.25532 17.0174 2.25151 17.1726 2.2496 17.3284C2.33718 20.133 3.32656 22.8346 5.07077 25.0319C6.81499 27.2291 9.22102 28.8049 11.9315 29.5251" fill="white"/>
<path d="M35.8278 15.6332H50.5961V8.26668C50.6031 7.27352 50.4064 6.28948 50.0181 5.37542C49.2691 3.59848 47.856 2.18458 46.08 1.43517C45.1665 1.04662 44.1829 0.849815 43.1903 0.856923C42.2047 0.848356 41.2282 1.04529 40.3229 1.43517C38.5577 2.19328 37.154 3.60523 36.4057 5.37542C36.0174 6.28946 35.8207 7.27351 35.8278 8.26668V15.6332ZM50.5961 16.4901H35.8278V32.1232H34.9714V8.26795C34.9639 7.16447 35.1825 6.07117 35.6135 5.05545C36.0286 4.07525 36.6238 3.1817 37.3683 2.42119C38.5277 1.26148 40.0057 0.473187 41.6143 0.15667C43.2229 -0.159847 44.8892 0.00972692 46.4011 0.643812C48.386 1.48777 49.9665 3.06893 50.8103 5.05481C51.2413 6.07053 51.4597 7.16387 51.4519 8.26732V32.1226H50.5961V16.4901Z" fill="white"/>
<path d="M57.3159 0.000610352H58.1723V31.2669H65.5349C66.5275 31.274 67.511 31.0772 68.4245 30.6886C70.2003 29.9388 71.6133 28.5251 72.3627 26.7484C72.7507 25.8343 72.9474 24.8503 72.9406 23.8571V0.00188193H73.797V23.8571C73.8047 24.9606 73.5861 26.054 73.1549 27.0696C72.311 29.0555 70.7305 30.6366 68.7456 31.4806C67.7306 31.9123 66.6378 32.131 65.5349 32.1231H57.3159V0.000610352Z" fill="white"/>
<path d="M79.6609 0.000610352H80.5173V23.8997C80.5085 24.886 80.7051 25.8633 81.0946 26.7694C81.8537 28.5272 83.2548 29.9288 85.0118 30.688C85.9171 31.0779 86.8936 31.2748 87.8792 31.2662C88.8718 31.2734 89.8553 31.0765 90.7689 30.688C92.5372 29.9383 93.948 28.5345 94.707 26.7694C95.0965 25.8633 95.2933 24.886 95.285 23.8997V0.000610352H96.1414V23.8997C96.1486 24.983 95.9385 26.0568 95.5235 27.0573C95.1085 28.0579 94.497 28.965 93.7254 29.7249C92.9655 30.47 92.0723 31.0656 91.0925 31.4806C90.0751 31.9048 88.9839 32.1232 87.8817 32.1232C86.7796 32.1232 85.6883 31.9048 84.671 31.4806C82.7002 30.652 81.1325 29.0835 80.3043 27.1116C79.873 26.0962 79.6545 25.003 79.6622 23.8997L79.6609 0.000610352Z" fill="white"/>
<path d="M102.006 0H102.862V31.2663H118.487V32.1225H102.006V0Z" fill="white"/>
<path d="M115.174 0H131.655V0.85688H123.821V32.1225H122.964V0.85688H115.174V0Z" fill="white"/>
<path d="M138.375 15.6332H153.144V8.26668C153.151 7.27352 152.954 6.28947 152.566 5.37542C151.817 3.59844 150.404 2.18452 148.628 1.43517C147.714 1.04662 146.731 0.849815 145.738 0.856923C144.752 0.848375 143.776 1.04531 142.871 1.43517C141.106 2.19395 139.702 3.60568 138.953 5.37542C138.565 6.28951 138.369 7.27356 138.376 8.26668L138.375 15.6332ZM153.144 16.4901H138.375V32.1232H137.519V8.26795C137.511 7.16446 137.73 6.07114 138.161 5.05545C138.576 4.07524 139.171 3.18168 139.916 2.42119C141.075 1.26148 142.553 0.473187 144.162 0.15667C145.77 -0.159847 147.437 0.00972692 148.949 0.643812C150.934 1.48782 152.514 3.06897 153.358 5.05481C153.789 6.07049 154.008 7.16383 154 8.26732V32.1226H153.144V16.4901Z" fill="white"/>
<path d="M37.0103 38.8593L36.9696 38.9146C36.8857 38.9504 36.7997 38.9813 36.7121 39.0069C36.6174 39.0355 36.5214 39.0597 36.419 39.08C36.3167 39.1004 36.22 39.115 36.1215 39.1246C36.0229 39.1341 35.9307 39.1398 35.8487 39.1398C35.5927 39.1456 35.3381 39.1005 35.0998 39.0069C34.8972 38.9252 34.7164 38.7976 34.5714 38.6341C34.4268 38.4658 34.3201 38.2684 34.2586 38.0552C34.1872 37.8119 34.1525 37.5594 34.1556 37.3058C34.1231 36.8342 34.269 36.3675 34.5644 35.9986C34.7343 35.8364 34.9368 35.7123 35.1583 35.6345C35.3799 35.5567 35.6154 35.5271 35.8494 35.5475C36.0269 35.5474 36.2043 35.5591 36.3803 35.5825C36.557 35.6067 36.7301 35.6522 36.8959 35.718L36.936 35.7785V35.9432L36.9061 36.0068L36.8361 36.0323L36.8107 36.0246L36.7808 36.0119L36.8005 36.0272C36.6475 35.9724 36.4912 35.9272 36.3326 35.8917C36.1735 35.8577 36.0113 35.8408 35.8487 35.8414C35.6384 35.8366 35.4289 35.8705 35.2307 35.9413C35.0683 36.0019 34.9229 36.1008 34.8067 36.2295C34.693 36.3626 34.61 36.5192 34.5638 36.6881C34.5091 36.8889 34.483 37.0965 34.4862 37.3046C34.4847 37.5096 34.5127 37.7138 34.5695 37.9108C34.6198 38.0887 34.7064 38.2542 34.8238 38.3968C34.9399 38.5354 35.0851 38.6467 35.2492 38.7225C35.4384 38.8065 35.6437 38.8475 35.8506 38.8427C36.0273 38.8428 36.2031 38.8199 36.3739 38.7747C36.5462 38.7301 36.7159 38.6786 36.8825 38.6226H36.8736L36.9232 38.6125L36.9957 38.65L37.0129 38.7327L37.0103 38.8593Z" fill="white"/>
<path d="M41.0428 37.0303C41.033 36.9265 41.0165 36.8235 40.9932 36.7218C40.9704 36.6225 40.9394 36.5252 40.9004 36.4311C40.8669 36.3469 40.8184 36.2695 40.7573 36.2027C40.6484 36.0942 40.5187 36.0089 40.3758 35.9521C40.186 35.8748 39.9824 35.8374 39.7775 35.842C39.5751 35.8367 39.3738 35.8733 39.1862 35.9495C39.0295 36.0165 38.8914 36.1207 38.7838 36.253C38.6751 36.3896 38.5965 36.5476 38.553 36.7167C38.5031 36.909 38.4787 37.1071 38.4805 37.3058C38.4799 37.5012 38.506 37.6957 38.5581 37.884C38.6055 38.0609 38.6853 38.2274 38.7933 38.3751C38.9 38.5182 39.0382 38.6349 39.1971 38.7161C39.3779 38.8003 39.5749 38.8439 39.7744 38.8439C39.9738 38.8439 40.1708 38.8003 40.3517 38.7161C40.5094 38.6345 40.6464 38.5179 40.7522 38.3751C40.8601 38.2276 40.9391 38.061 40.9849 37.884C41.0356 37.6955 41.0609 37.501 41.06 37.3058C41.06 37.2256 41.0555 37.134 41.0453 37.0303H41.0428ZM41.2958 38.017C41.2346 38.2298 41.1318 38.4283 40.9932 38.601C40.855 38.7684 40.6812 38.9029 40.4845 38.9947C40.2621 39.0956 40.0198 39.1451 39.7756 39.1398C39.5278 39.1456 39.2816 39.0976 39.054 38.9992C38.8564 38.9115 38.6822 38.7785 38.5454 38.6111C38.408 38.4378 38.3058 38.2392 38.2447 38.0265C38.1767 37.7922 38.1433 37.5491 38.1455 37.3051C38.1423 37.0597 38.174 36.8152 38.2395 36.5787C38.2963 36.3746 38.3975 36.1856 38.5358 36.0252C38.6753 35.8692 38.8496 35.7482 39.0445 35.6722C39.5143 35.5049 40.0274 35.5049 40.4973 35.6722C40.6922 35.7482 40.8665 35.8692 41.0059 36.0252C41.144 36.1856 41.2448 36.3746 41.3009 36.5787C41.3674 36.815 41.3997 37.0596 41.3969 37.3051C41.3982 37.5458 41.3643 37.7854 41.2965 38.0163" fill="white"/>
<path d="M45.5302 39.0717L45.4704 39.1092H45.3286L45.279 39.0793C44.9247 38.5916 44.569 38.1081 44.2122 37.6289C43.8553 37.1497 43.5047 36.6609 43.1605 36.1626C43.1605 36.6405 43.1605 37.1157 43.1605 37.5882C43.1605 38.0606 43.1633 38.5358 43.1688 39.0138L43.1281 39.0691L43.0728 39.1092H42.9285L42.8649 39.0589L42.8401 39.0144V35.6721L42.8808 35.6123L42.9406 35.5722H43.0912L43.1415 35.6021C43.5017 36.0865 43.8572 36.5701 44.2077 37.0532C44.5582 37.5362 44.9056 38.0239 45.2498 38.5163C45.2464 38.0384 45.243 37.564 45.2396 37.0933C45.2362 36.6225 45.2328 36.148 45.2294 35.6696L45.2669 35.6098L45.3242 35.5697H45.4793L45.5397 35.6193L45.5645 35.6696V39.0119L45.5302 39.0717Z" fill="white"/>
<path d="M49.3111 35.8471L49.2475 35.9024C49.1576 35.8956 49.0675 35.8899 48.9773 35.8852C48.887 35.8802 48.7948 35.8776 48.7014 35.8776H48.3358V39.0144L48.2951 39.0698L48.2404 39.1098H48.1049L48.0496 39.0698L48.0096 39.0144V35.8776H47.665C47.5754 35.8776 47.4838 35.8814 47.3922 35.8897C47.3007 35.898 47.2078 35.9024 47.1144 35.9024L47.0298 35.8452L47.0139 35.7319V35.6721L47.0514 35.6123L47.1087 35.5723H49.238L49.2952 35.6123L49.332 35.6721V35.8076L49.3111 35.8471Z" fill="white"/>
<path d="M52.237 36.0074C52.0905 35.8792 51.9 35.8128 51.7055 35.8223H51.4512H51.352H51.2516V37.1658C51.3201 37.1794 51.3897 37.1871 51.4595 37.1887C51.5307 37.1887 51.6025 37.1887 51.6725 37.1887C51.7768 37.1895 51.8809 37.1786 51.9827 37.1562C52.0706 37.1371 52.1533 37.0996 52.2256 37.0462C52.2952 36.9928 52.3494 36.9219 52.3826 36.8407C52.4221 36.7412 52.4409 36.6347 52.438 36.5277C52.4441 36.4309 52.4294 36.3338 52.395 36.2431C52.3605 36.1524 52.3071 36.0701 52.2383 36.0016L52.237 36.0074ZM53.0114 39.0659L52.9542 39.0907L52.8837 39.1009H52.8283H52.7533L52.6897 39.0609C52.6536 38.9892 52.6217 38.9155 52.5944 38.8401C52.5575 38.7434 52.5149 38.6378 52.4672 38.522C52.4195 38.4063 52.3667 38.2918 52.3114 38.1734C52.2602 38.0619 52.2018 37.9537 52.1366 37.8496C52.0821 37.7636 52.0181 37.684 51.9458 37.6124C51.9219 37.5849 51.8926 37.5626 51.8599 37.5466C51.8271 37.5306 51.7915 37.5214 51.7551 37.5195H51.2643V39.003L51.2249 39.0583L51.1696 39.0984H51.0291L50.9737 39.0583L50.9343 39.003V35.6607L50.9661 35.6053L51.0087 35.5608C51.2325 35.5506 51.4595 35.5455 51.6903 35.5455C51.8363 35.5437 51.9819 35.5613 52.1233 35.5977C52.2433 35.6285 52.3552 35.6849 52.4513 35.7631C52.5437 35.8417 52.6144 35.9426 52.6567 36.0564C52.7068 36.196 52.7305 36.3438 52.7266 36.4921C52.7271 36.6781 52.6764 36.8607 52.5801 37.0198C52.4837 37.1789 52.3455 37.3084 52.1805 37.3942C52.2736 37.4899 52.3545 37.5967 52.4214 37.7122C52.4977 37.8426 52.5715 37.9813 52.6414 38.1289C52.7114 38.2765 52.7781 38.4215 52.8392 38.5666C52.9002 38.7116 52.9606 38.8401 53.0165 38.9483L53.0064 38.9381L53.0312 39.0017L53.0114 39.0659Z" fill="white"/>
<path d="M55.732 36.0621L55.2234 37.4546H56.2209L55.732 36.0621ZM57.0589 39.0965L56.9744 39.1136L56.8536 39.1092L56.7899 39.0691L56.3138 37.7612H55.1223C54.9684 38.2018 54.8097 38.6378 54.646 39.0691L54.5825 39.1092H54.4318L54.3619 39.0863L54.3269 39.0227C54.5388 38.4518 54.7467 37.8838 54.9506 37.3185C55.1545 36.7531 55.3573 36.1836 55.5591 35.6098L55.6226 35.5697H55.8331L55.9037 35.6098L56.4848 37.2739C56.4981 37.3108 56.5217 37.3782 56.5573 37.4768C56.5929 37.5754 56.6336 37.6868 56.68 37.8102C56.7264 37.9336 56.7747 38.0646 56.823 38.1982L56.9584 38.5799C57.0008 38.6974 57.0352 38.7966 57.0614 38.8776C57.0799 38.9255 57.0933 38.9752 57.1015 39.0258L57.0589 39.0965Z" fill="white"/>
<path d="M59.8891 35.8471L59.8255 35.9024C59.7356 35.8956 59.6456 35.8899 59.5553 35.8852C59.465 35.8802 59.3728 35.8776 59.2793 35.8776H58.9138V39.0144L58.8731 39.0698L58.8184 39.1098H58.683L58.6277 39.0698L58.5876 39.0144V35.8776H58.2424C58.1525 35.8776 58.0616 35.8816 57.9696 35.8897C57.8774 35.8986 57.7852 35.9024 57.6918 35.9024L57.6072 35.8452L57.5913 35.7319V35.6721L57.6288 35.6123L57.686 35.5723H59.8153L59.8725 35.6123L59.9094 35.6721V35.8076L59.8891 35.8471Z" fill="white"/>
<path d="M61.8777 36.0621L61.369 37.4546H62.3666L61.8777 36.0621ZM63.2046 39.0965L63.12 39.1136L62.9992 39.1092L62.9356 39.0691L62.4588 37.7612H61.2667C61.1128 38.2018 60.9541 38.6378 60.7904 39.0691L60.7269 39.1092H60.5768L60.5069 39.0863L60.4719 39.0227C60.6839 38.4518 60.8917 37.8838 61.0956 37.3185C61.2995 36.7531 61.5023 36.1836 61.7041 35.6098L61.7677 35.5697H61.9781L62.0481 35.6098L62.6292 37.2739C62.6425 37.3108 62.6661 37.3782 62.7023 37.4768C62.7385 37.5754 62.7779 37.6868 62.8243 37.8102C62.8708 37.9336 62.9191 38.0646 62.9668 38.1982C63.0144 38.3318 63.0602 38.4603 63.1022 38.5799C63.1442 38.6995 63.1785 38.7968 63.2052 38.8776C63.2236 38.9255 63.2371 38.9752 63.2453 39.0258L63.2046 39.0965Z" fill="white"/>
<path d="M67.1811 38.8593L67.1416 38.9146C67.0523 38.9556 66.9601 38.9901 66.8657 39.0176C66.768 39.0464 66.6686 39.0689 66.5681 39.0851C66.4658 39.1016 66.3647 39.115 66.2623 39.1226C66.16 39.1302 66.0627 39.1347 65.9692 39.1347L65.9495 39.19C66.0039 39.205 66.0571 39.2235 66.1091 39.2454C66.1652 39.2684 66.2189 39.297 66.2693 39.3306L66.3965 39.4509C66.4299 39.4975 66.4475 39.5537 66.4467 39.6112C66.4491 39.6774 66.4344 39.7431 66.4041 39.802L66.2909 39.9292C66.2414 39.9623 66.1862 39.986 66.1282 39.9992C66.0668 40.0143 66.0038 40.022 65.9406 40.0221C65.8043 40.0239 65.6698 39.9911 65.5496 39.9267L65.5197 39.8669V39.7168L65.5445 39.6487L65.6081 39.6213C65.6548 39.6278 65.6987 39.647 65.7352 39.6767C65.7961 39.7148 65.8669 39.7339 65.9387 39.7314L66.0506 39.7117L66.1142 39.6264L66.0436 39.5539C65.9966 39.5355 65.9438 39.5157 65.8859 39.4941C65.8307 39.474 65.7779 39.448 65.7283 39.4165C65.7062 39.4036 65.688 39.385 65.6757 39.3626C65.6634 39.3402 65.6574 39.3148 65.6583 39.2893L65.6711 39.2015L65.6933 39.1188C65.475 39.0898 65.2648 39.0164 65.0759 38.9031C64.9078 38.8002 64.7625 38.6638 64.6493 38.5024C64.5356 38.3364 64.4527 38.1513 64.4045 37.9559C64.3521 37.7445 64.3263 37.5274 64.3276 37.3096C64.2946 36.838 64.4403 36.3713 64.7358 36.0023C64.9057 35.8402 65.1081 35.7161 65.3297 35.6383C65.5512 35.5605 65.7868 35.5309 66.0207 35.5513C66.1983 35.5511 66.3756 35.5628 66.5516 35.5863C66.7285 35.6106 66.9018 35.6561 67.0679 35.7218L67.1079 35.7822V35.947L67.078 36.0106L67.0081 36.0361L66.9827 36.0284L66.9528 36.0157L66.9719 36.031C66.8184 35.9784 66.6622 35.9343 66.5039 35.8987C66.3454 35.863 66.1833 35.8453 66.0207 35.8459C65.8102 35.8411 65.6005 35.8749 65.4021 35.9457C65.2399 36.0065 65.0947 36.1053 64.9786 36.2339C64.8645 36.3667 64.7815 36.5235 64.7358 36.6926C64.6811 36.8934 64.655 37.1009 64.6582 37.309C64.6568 37.514 64.6847 37.7181 64.7409 37.9152C64.7914 38.093 64.878 38.2584 64.9952 38.4012C65.111 38.5401 65.2563 38.6514 65.4205 38.7269C65.6097 38.811 65.8151 38.8521 66.022 38.8472C66.1986 38.8471 66.3745 38.8243 66.5453 38.7791C66.7169 38.7346 66.8867 38.683 67.0539 38.6271H67.0488L67.099 38.6169L67.1721 38.6544L67.1893 38.7371L67.1811 38.8593Z" fill="white"/>
<path d="M70.0413 36.0628L69.5327 37.4553H70.529L70.0413 36.0628ZM71.1177 35.1958C71.0495 35.2702 70.9694 35.3327 70.8806 35.3809C70.7929 35.4322 70.6935 35.4598 70.5919 35.461C70.517 35.4613 70.4425 35.4495 70.3713 35.4261C70.3014 35.4025 70.2321 35.3777 70.1634 35.351C70.0948 35.3243 70.0267 35.2995 69.9593 35.2753C69.8905 35.2521 69.8183 35.2402 69.7457 35.2403C69.6737 35.2414 69.6042 35.267 69.5486 35.3128C69.4914 35.3571 69.437 35.4049 69.3858 35.4559L69.3451 35.4763L69.2676 35.4458L69.2154 35.3758L69.2199 35.3802L69.2053 35.3554L69.19 35.3255V35.2498C69.262 35.1679 69.3455 35.097 69.438 35.0393C69.529 34.9781 69.636 34.945 69.7457 34.9439C69.8206 34.9436 69.8951 34.9554 69.9663 34.9788C70.0363 35.0024 70.1056 35.0291 70.1742 35.059C70.2429 35.0889 70.3116 35.1156 70.3796 35.1392C70.4479 35.1626 70.5197 35.1746 70.5919 35.1748C70.6411 35.1756 70.6896 35.1633 70.7324 35.1392L70.8399 35.0641L70.9251 34.9916L70.9925 34.9591L71.0561 34.9941L71.126 35.1099L71.1177 35.1958ZM71.3682 39.0972L71.2831 39.1144L71.1629 39.1099L71.0993 39.0699L70.6237 37.762H69.4316C69.2778 38.203 69.119 38.639 68.9554 39.0699L68.8918 39.1099H68.7412L68.6712 39.087L68.6362 39.0234C68.8482 38.4526 69.0561 37.8845 69.26 37.3192C69.4638 36.7539 69.6664 36.1843 69.8678 35.6105L69.9313 35.5704H70.1412L70.2111 35.6105L70.7929 37.2747C70.8056 37.3116 70.8297 37.379 70.8647 37.4776C70.8997 37.5762 70.941 37.6875 70.9881 37.8109C71.0351 37.9343 71.0821 38.0654 71.1311 38.199C71.18 38.3326 71.2239 38.4611 71.2665 38.5807C71.3091 38.7003 71.3428 38.7976 71.3695 38.8784C71.3873 38.9264 71.4005 38.9761 71.4089 39.0266L71.3682 39.0972Z" fill="white"/>
<path d="M75.7609 37.0303C75.7508 36.9266 75.7342 36.8235 75.7113 36.7218C75.6887 36.6225 75.6579 36.5252 75.6191 36.4311C75.5856 36.3469 75.5371 36.2695 75.476 36.2027C75.367 36.0944 75.2372 36.0091 75.0945 35.9521C74.9047 35.8748 74.7011 35.8374 74.4963 35.842C74.2939 35.8365 74.0925 35.8731 73.905 35.9495C73.7478 36.0164 73.6093 36.1206 73.5013 36.253C73.3928 36.3896 73.3144 36.5476 73.2711 36.7167C73.2209 36.909 73.1965 37.1071 73.1986 37.3058C73.1977 37.5012 73.2238 37.6958 73.2762 37.884C73.3234 38.0609 73.4031 38.2275 73.5114 38.3751C73.6179 38.5182 73.7558 38.6349 73.9145 38.7161C74.0955 38.8003 74.2926 38.8439 74.4922 38.8439C74.6917 38.8439 74.8888 38.8003 75.0697 38.7161C75.2273 38.6342 75.3642 38.5176 75.4703 38.3751C75.5782 38.2276 75.6572 38.061 75.703 37.884C75.7534 37.6954 75.7786 37.501 75.778 37.3058C75.7775 37.2138 75.7725 37.1218 75.7628 37.0303H75.7609ZM76.0133 38.017C75.9516 38.2297 75.8486 38.4282 75.71 38.601C75.5718 38.7683 75.398 38.9029 75.2014 38.9947C74.9789 39.0955 74.7366 39.1451 74.4925 39.1398C74.2446 39.1456 73.9984 39.0976 73.7708 38.9992C73.5733 38.9115 73.3991 38.7785 73.2622 38.6111C73.1242 38.4382 73.0219 38.2394 72.9615 38.0265C72.8931 37.7922 72.8592 37.5492 72.861 37.3051C72.8583 37.0597 72.8904 36.8151 72.9564 36.5787C73.013 36.3746 73.114 36.1857 73.252 36.0252C73.3916 35.8693 73.5658 35.7484 73.7607 35.6722C74.2302 35.5046 74.7433 35.5046 75.2128 35.6722C75.4077 35.7484 75.5819 35.8693 75.7214 36.0252C75.8594 36.1857 75.9601 36.3747 76.0165 36.5787C76.0827 36.815 76.1149 37.0597 76.1118 37.3051C76.1133 37.5458 76.0796 37.7854 76.012 38.0163" fill="white"/>
<path d="M81.2523 36.1295C81.2278 36.062 81.1835 36.0035 81.1252 35.9616C81.0627 35.9192 80.9917 35.891 80.9172 35.8789C80.8238 35.8627 80.7291 35.8551 80.6343 35.856H80.434C80.3705 35.856 80.2999 35.856 80.2331 35.8604V37.3038L80.3838 37.314H80.5345C80.6582 37.3178 80.7812 37.2946 80.895 37.2459C80.9878 37.204 81.0687 37.1395 81.1302 37.0583C81.1923 36.9731 81.2356 36.8758 81.2574 36.7727C81.2833 36.654 81.2959 36.5328 81.2949 36.4113C81.298 36.3151 81.2834 36.2192 81.2517 36.1283L81.2523 36.1295ZM81.5397 36.9654C81.4891 37.0929 81.4135 37.2088 81.3172 37.3064C81.2199 37.4024 81.1039 37.4773 80.9764 37.5265C80.8365 37.5796 80.6879 37.606 80.5383 37.6041L80.3876 37.599L80.2376 37.5837V39.0125L80.1975 39.0698L80.1378 39.1067H79.9871L79.9394 39.064L79.907 39.0119V35.6696L79.9394 35.6136L79.9827 35.5691C80.1725 35.5593 80.3646 35.5542 80.5587 35.5538C80.7087 35.5521 80.8583 35.5698 81.0037 35.6066C81.1259 35.6369 81.2398 35.6943 81.3369 35.7746C81.4299 35.8562 81.5013 35.9595 81.5448 36.0755C81.5964 36.2201 81.6208 36.373 81.6166 36.5265C81.6188 36.6764 81.5915 36.8253 81.5365 36.9648" fill="white"/>
<path d="M84.516 36.0075C84.3697 35.8793 84.1794 35.8129 83.9851 35.8224H83.7308H83.631H83.5311V37.1659C83.5997 37.1796 83.6692 37.1872 83.739 37.1888C83.8102 37.1888 83.8815 37.1888 83.9514 37.1888C84.0557 37.1897 84.1598 37.1788 84.2617 37.1564C84.3496 37.1374 84.4324 37.0999 84.5046 37.0463C84.5743 36.9929 84.6287 36.9221 84.6622 36.8408C84.7016 36.7413 84.7204 36.6348 84.7175 36.5278C84.7235 36.4309 84.7088 36.3339 84.6743 36.2431C84.6397 36.1524 84.5862 36.0701 84.5172 36.0018L84.516 36.0075ZM85.291 39.066L85.2338 39.0909L85.1639 39.101H85.1086H85.0335L84.97 39.061C84.9335 38.9894 84.9015 38.9157 84.8739 38.8402C84.8375 38.7431 84.7951 38.6371 84.7468 38.5221C84.6985 38.4072 84.6467 38.291 84.5916 38.1735C84.5404 38.062 84.482 37.9538 84.4168 37.8497C84.3623 37.7637 84.2984 37.6841 84.2261 37.6125C84.2021 37.5851 84.1728 37.5628 84.14 37.5468C84.1073 37.5309 84.0717 37.5216 84.0353 37.5196H83.5445V39.0031L83.5044 39.0584L83.4498 39.0985H83.3086L83.2539 39.0584L83.2139 39.0031V35.6608L83.2463 35.6054L83.2889 35.5609C83.5127 35.5507 83.7397 35.5457 83.9705 35.5457C84.1165 35.5439 84.2621 35.5614 84.4035 35.5978C84.5235 35.6286 84.6354 35.685 84.7315 35.7632C84.8239 35.8418 84.8946 35.9428 84.9369 36.0565C84.9867 36.1962 85.0104 36.3439 85.0068 36.4922C85.0076 36.6782 84.9571 36.8608 84.8608 37.02C84.7646 37.1791 84.6264 37.3086 84.4613 37.3943C84.5544 37.49 84.6353 37.5968 84.7023 37.7123C84.7786 37.8427 84.8523 37.9814 84.9223 38.129C84.9922 38.2766 85.0589 38.4216 85.12 38.5667C85.181 38.7117 85.2414 38.8402 85.2967 38.9484L85.2872 38.9382L85.312 39.0018L85.291 39.066Z" fill="white"/>
<path d="M89.1833 37.0304C89.1736 36.9266 89.1567 36.8235 89.133 36.7219C89.1104 36.6226 89.0796 36.5253 89.0408 36.4312C89.0076 36.3469 88.959 36.2695 88.8978 36.2028C88.7887 36.0945 88.659 36.0092 88.5163 35.9522C88.3265 35.8749 88.1228 35.8375 87.918 35.8421C87.7158 35.8367 87.5147 35.8733 87.3274 35.9496C87.1703 36.0166 87.0317 36.1208 86.9236 36.2531C86.8154 36.3899 86.737 36.5478 86.6935 36.7168C86.6432 36.909 86.6188 37.1072 86.621 37.3059C86.6201 37.5013 86.6462 37.6959 86.6986 37.8841C86.746 38.0609 86.8258 38.2275 86.9338 38.3752C87.0405 38.5183 87.1786 38.635 87.3375 38.7162C87.5184 38.8003 87.7154 38.8439 87.9148 38.8439C88.1143 38.8439 88.3113 38.8003 88.4921 38.7162C88.6498 38.6344 88.7867 38.5178 88.8927 38.3752C89.0006 38.2277 89.0795 38.0611 89.1254 37.8841C89.1761 37.6956 89.2013 37.5011 89.2004 37.3059C89.2004 37.2257 89.196 37.1341 89.1852 37.0304H89.1833ZM89.4356 38.0171C89.374 38.2298 89.2709 38.4283 89.1324 38.601C88.9941 38.7684 88.8204 38.9029 88.6237 38.9948C88.4013 39.0956 88.159 39.1451 87.9148 39.1399C87.667 39.1457 87.4208 39.0977 87.1932 38.9993C86.9956 38.9116 86.8214 38.7786 86.6846 38.6112C86.5469 38.438 86.4447 38.2394 86.3838 38.0266C86.3155 37.7923 86.2816 37.5493 86.2834 37.3052C86.2805 37.0597 86.3129 36.8151 86.3794 36.5788C86.4355 36.3747 86.5363 36.1857 86.6744 36.0253C86.8139 35.8694 86.9882 35.7484 87.183 35.6723C87.6527 35.5051 88.1656 35.5051 88.6352 35.6723C88.83 35.7484 89.0043 35.8694 89.1438 36.0253C89.2817 36.1858 89.3825 36.3748 89.4388 36.5788C89.5053 36.8151 89.5377 37.0597 89.5348 37.3052C89.5361 37.5459 89.5022 37.7855 89.4344 38.0164" fill="white"/>
<path d="M92.5187 35.8719L92.4736 35.8916L92.3038 35.8846C92.2466 35.8846 92.1894 35.8846 92.1328 35.8846H91.8677C91.771 35.8846 91.6769 35.8846 91.5771 35.8846C91.4773 35.8846 91.3863 35.8846 91.2872 35.8846V37.1473H92.3242L92.4093 37.2001L92.424 37.3076C92.4267 37.3311 92.4239 37.3548 92.4157 37.3769C92.4075 37.399 92.3943 37.4189 92.3769 37.4349L92.2587 37.4749L92.1112 37.4699L91.9738 37.4597H91.2903V39.0131L91.2655 39.0558L91.2357 39.0882L91.1956 39.1086H91.0653L91.0259 39.0882L90.9953 39.0558L90.9712 39.0131V35.6702L91.0265 35.5901L91.0659 35.5697H92.4837L92.5238 35.5901L92.5588 35.6301L92.574 35.6702V35.8203L92.5187 35.8719Z" fill="white"/>
<path d="M94.7829 39.0743L94.7269 39.1143H93.7732L93.718 39.0743L93.6772 39.0189V38.9038L93.718 38.8484L93.7732 38.8084H94.0911V35.6716L94.128 35.6111L94.1859 35.571H94.3213L94.3785 35.6111L94.416 35.6716V38.8084H94.7263L94.7823 38.8484L94.8216 38.9038V39.0189L94.7829 39.0743Z" fill="white"/>
<path d="M98.1486 38.6506C98.0938 38.7601 98.0141 38.8553 97.9159 38.9285C97.8138 39.0037 97.6981 39.0581 97.5751 39.0889C97.4432 39.1229 97.3075 39.1398 97.1714 39.1391C97.0282 39.1393 96.8852 39.1293 96.7435 39.1092C96.6012 39.0892 96.4611 39.0558 96.3251 39.0093L96.2654 38.9241V38.7441L96.2908 38.6805L96.3544 38.6506L96.4517 38.6779L96.5445 38.7256C96.6439 38.7625 96.7459 38.7919 96.8497 38.8134C96.9542 38.8351 97.0608 38.846 97.1676 38.8458C97.258 38.8457 97.348 38.8348 97.4359 38.8134C97.5213 38.7931 97.6026 38.7582 97.6762 38.7103C97.7468 38.6643 97.8058 38.6024 97.8485 38.5297C97.8934 38.4487 97.9154 38.357 97.9121 38.2644C97.9183 38.1242 97.8758 37.9862 97.7919 37.8738C97.7082 37.7706 97.6065 37.6833 97.4918 37.6162C97.3653 37.5417 97.2341 37.4756 97.0989 37.4184C96.9608 37.3605 96.829 37.2882 96.706 37.2027C96.5859 37.1203 96.4835 37.0147 96.4046 36.8923C96.3339 36.7603 96.2934 36.6143 96.286 36.4648C96.2787 36.3153 96.3046 36.166 96.362 36.0278C96.4104 35.9232 96.4825 35.8313 96.5725 35.7593C96.6649 35.6875 96.7702 35.6342 96.8827 35.6022C97.0066 35.5659 97.1351 35.5482 97.2642 35.5494C97.393 35.5494 97.5217 35.5577 97.6495 35.5742C97.7777 35.5903 97.9037 35.6206 98.0253 35.6645L98.085 35.7491V35.9043L98.0634 35.9679L97.9998 35.9979L97.9496 35.9877L97.9597 35.9928C97.8892 35.973 97.8288 35.9533 97.7773 35.9355L97.6266 35.8878C97.5754 35.8738 97.5234 35.863 97.4708 35.8554C97.4034 35.8459 97.3354 35.8417 97.2674 35.8426C97.1832 35.8421 97.0992 35.8522 97.0175 35.8725C96.9405 35.8904 96.8679 35.9235 96.8039 35.9699C96.7426 36.0149 96.6922 36.0732 96.6564 36.1403C96.6171 36.2193 96.5981 36.3067 96.6011 36.3948C96.5943 36.5323 96.6369 36.6677 96.7212 36.7765C96.807 36.8763 96.9097 36.9603 97.0245 37.0246C97.1514 37.0967 97.2829 37.1605 97.4181 37.2154C97.5564 37.2733 97.6881 37.3458 97.811 37.4317C97.9323 37.5164 98.0355 37.6245 98.1143 37.7498C98.2004 37.9005 98.2421 38.0725 98.2344 38.246C98.2384 38.3855 98.2092 38.5239 98.1492 38.6499" fill="white"/>
<path d="M101.539 38.6507C101.484 38.7604 101.404 38.8556 101.305 38.9286C101.204 39.0039 101.088 39.0584 100.965 39.089C100.834 39.123 100.698 39.1398 100.562 39.1392C100.419 39.1394 100.276 39.1294 100.134 39.1093C99.9915 39.0894 99.8517 39.0559 99.7159 39.0094L99.6555 38.9242V38.7442L99.6803 38.6806L99.7439 38.6507L99.8405 38.678L99.9333 38.7257C100.033 38.7626 100.135 38.792 100.239 38.8135C100.344 38.8353 100.45 38.8461 100.557 38.8459C100.647 38.8458 100.737 38.8349 100.825 38.8135C100.91 38.7932 100.991 38.7583 101.065 38.7104C101.136 38.6645 101.195 38.6027 101.238 38.5298C101.283 38.4487 101.305 38.357 101.302 38.2645C101.308 38.1244 101.266 37.9864 101.182 37.8739C101.098 37.7706 100.996 37.6833 100.881 37.6163C100.755 37.5417 100.624 37.4756 100.488 37.4185C100.35 37.3606 100.219 37.2883 100.095 37.2028C99.9757 37.1202 99.8736 37.0147 99.7948 36.8924C99.7238 36.7605 99.683 36.6145 99.6755 36.465C99.6681 36.3154 99.694 36.1661 99.7515 36.0278C99.8003 35.9233 99.8725 35.8314 99.9626 35.7594C100.055 35.6876 100.16 35.6342 100.273 35.6023C100.396 35.5664 100.523 35.5486 100.651 35.5495C100.779 35.5494 100.908 35.5577 101.036 35.5743C101.164 35.5905 101.29 35.6208 101.412 35.6646L101.472 35.7492V35.9044L101.449 35.968L101.386 35.998L101.335 35.9878L101.345 35.9929C101.276 35.9731 101.215 35.9534 101.163 35.9356L101.012 35.8879C100.961 35.8738 100.909 35.863 100.857 35.8555C100.79 35.846 100.722 35.8418 100.654 35.8427C100.57 35.8423 100.486 35.8523 100.404 35.8726C100.327 35.8907 100.255 35.9238 100.191 35.97C100.13 36.015 100.079 36.0732 100.043 36.1404C100.004 36.2194 99.9851 36.3068 99.988 36.3949C99.9814 36.5325 100.024 36.6679 100.109 36.7766C100.194 36.8765 100.297 36.9605 100.411 37.0247C100.538 37.0966 100.67 37.1603 100.804 37.2155C100.943 37.2731 101.075 37.3456 101.197 37.4318C101.319 37.5161 101.423 37.6243 101.501 37.7499C101.587 37.9006 101.629 38.0726 101.621 38.2461C101.625 38.3856 101.596 38.524 101.536 38.65" fill="white"/>
<path d="M104.099 39.0743L104.043 39.1143H103.089L103.035 39.0743L102.994 39.0189V38.9038L103.035 38.8484L103.089 38.8084H103.407V35.6716L103.444 35.6111L103.502 35.571H103.637L103.695 35.6111L103.732 35.6716V38.8084H104.042L104.098 38.8484L104.138 38.9038V39.0189L104.099 39.0743Z" fill="white"/>
<path d="M108.15 37.0304C108.14 36.9266 108.124 36.8235 108.1 36.7219C108.078 36.6226 108.047 36.5253 108.008 36.4312C107.974 36.347 107.926 36.2696 107.865 36.2028C107.756 36.0945 107.626 36.0092 107.483 35.9522C107.294 35.875 107.09 35.8375 106.885 35.8421C106.683 35.8366 106.481 35.8732 106.294 35.9496C106.137 36.0167 105.998 36.1208 105.89 36.2531C105.782 36.3899 105.703 36.5478 105.66 36.7168C105.61 36.9091 105.585 37.1072 105.588 37.3059C105.587 37.5013 105.613 37.6959 105.665 37.8841C105.713 38.0609 105.792 38.2275 105.9 38.3752C106.007 38.5183 106.145 38.635 106.304 38.7162C106.485 38.8003 106.682 38.8439 106.881 38.8439C107.081 38.8439 107.278 38.8003 107.459 38.7162C107.616 38.6344 107.753 38.5178 107.859 38.3752C107.967 38.2277 108.046 38.0611 108.092 37.8841C108.143 37.6956 108.168 37.5011 108.167 37.3059C108.166 37.2139 108.161 37.1219 108.152 37.0304H108.15ZM108.403 38.0171C108.341 38.2298 108.238 38.4283 108.1 38.601C107.961 38.7684 107.788 38.9029 107.591 38.9948C107.368 39.0956 107.126 39.1451 106.882 39.1399C106.634 39.1457 106.388 39.0977 106.16 38.9993C105.963 38.9116 105.789 38.7787 105.652 38.6112C105.514 38.438 105.412 38.2393 105.351 38.0266C105.283 37.7923 105.249 37.5493 105.251 37.3052C105.248 37.0598 105.28 36.8152 105.346 36.5788C105.402 36.3747 105.503 36.1857 105.642 36.0253C105.781 35.8694 105.955 35.7484 106.15 35.6723C106.62 35.5051 107.133 35.5051 107.602 35.6723C107.797 35.7484 107.971 35.8694 108.111 36.0253C108.249 36.1858 108.35 36.3748 108.406 36.5788C108.472 36.8151 108.505 37.0597 108.502 37.3052C108.503 37.5459 108.469 37.7855 108.402 38.0164" fill="white"/>
<path d="M112.639 39.0717L112.575 39.1092H112.435L112.385 39.0793C112.031 38.5916 111.675 38.1081 111.318 37.6289C110.961 37.1497 110.611 36.6609 110.266 36.1626C110.266 36.6405 110.266 37.1157 110.266 37.5882C110.266 38.0606 110.269 38.5358 110.273 39.0138L110.234 39.0691L110.179 39.1092H110.033L109.973 39.0589L109.948 39.0144V35.6721L109.989 35.6123L110.052 35.5722H110.202L110.252 35.6021C110.612 36.0865 110.967 36.5701 111.318 37.0532C111.669 37.5362 112.016 38.0239 112.36 38.5163C112.36 38.0386 112.353 37.5621 112.35 37.0933C112.347 36.6244 112.344 36.148 112.34 35.6696L112.378 35.6098L112.435 35.5697H112.59L112.65 35.6193L112.675 35.6696V39.0119L112.639 39.0717Z" fill="white"/>
<path d="M115.563 36.0621L115.054 37.4546H116.052L115.563 36.0621ZM116.89 39.0965L116.805 39.1136L116.685 39.1092L116.621 39.0691L116.145 37.7612H114.952C114.798 38.2018 114.639 38.6378 114.476 39.0691L114.412 39.1092H114.259L114.189 39.0863L114.154 39.0227C114.366 38.4518 114.574 37.8838 114.778 37.3185C114.982 36.7531 115.184 36.1836 115.386 35.6098L115.45 35.5697H115.66L115.73 35.6098L116.311 37.2739C116.325 37.3108 116.348 37.3782 116.384 37.4768C116.419 37.5754 116.46 37.6868 116.507 37.8102C116.553 37.9336 116.601 38.0646 116.65 38.1982C116.698 38.3318 116.743 38.4603 116.785 38.5799C116.827 38.6995 116.861 38.7968 116.888 38.8776C116.906 38.9256 116.919 38.9752 116.927 39.0258L116.89 39.0965Z" fill="white"/>
<path d="M119.998 38.9668V39.0145L119.974 39.0571L119.943 39.0896L119.902 39.1099H118.42L118.38 39.0896L118.353 39.0527L118.33 39.0151V35.6729L118.353 35.6302L118.38 35.5927L118.42 35.573H118.555L118.619 35.6131L118.658 35.6729V38.8052H119.324C119.421 38.8052 119.515 38.802 119.615 38.795C119.715 38.7881 119.806 38.7849 119.906 38.7849L119.986 38.8275L120.006 38.9204L119.998 38.9668Z" fill="white"/>
<path d="M124.864 39.0743L124.808 39.1143H123.855L123.8 39.0743L123.76 39.0189V38.9038L123.8 38.8484L123.855 38.8084H124.172V35.6716L124.209 35.6111L124.267 35.571H124.402L124.46 35.6111L124.497 35.6716V38.8084H124.807L124.862 38.8484L124.903 38.9038V39.0189L124.864 39.0743Z" fill="white"/>
<path d="M129.005 39.0717L128.945 39.1092H128.805L128.755 39.0793C128.401 38.5916 128.046 38.1081 127.688 37.6289C127.331 37.1497 126.981 36.6609 126.637 36.1626C126.637 36.6405 126.637 37.1157 126.637 37.5882C126.637 38.0606 126.64 38.5358 126.645 39.0138L126.604 39.0691L126.549 39.1092H126.405L126.344 39.0589L126.319 39.0144V35.6721L126.36 35.6123L126.419 35.5722H126.569L126.62 35.6021C126.98 36.0865 127.335 36.5701 127.686 37.0532C128.036 37.5362 128.384 38.0239 128.728 38.5163C128.724 38.0384 128.721 37.564 128.718 37.0933C128.714 36.6225 128.711 36.148 128.708 35.6696L128.745 35.6098L128.803 35.5697H128.957L129.018 35.6193L129.043 35.6696V39.0119L129.005 39.0717Z" fill="white"/>
<path d="M133.348 38.8593L133.308 38.9146C133.224 38.9503 133.138 38.9811 133.05 39.0069C132.955 39.0355 132.859 39.0597 132.757 39.08C132.655 39.1004 132.557 39.115 132.459 39.1245C132.361 39.1341 132.269 39.1398 132.187 39.1398C131.93 39.1457 131.676 39.1005 131.437 39.0069C131.235 38.9253 131.054 38.7977 130.909 38.6341C130.765 38.4658 130.658 38.2684 130.597 38.0552C130.525 37.8119 130.49 37.5594 130.494 37.3058C130.461 36.8341 130.607 36.3674 130.902 35.9986C131.072 35.8364 131.275 35.7123 131.496 35.6345C131.718 35.5567 131.953 35.5271 132.187 35.5475C132.365 35.5474 132.542 35.5591 132.718 35.5825C132.895 35.6068 133.068 35.6523 133.234 35.718L133.275 35.7785V35.9432L133.245 36.0068L133.175 36.0323L133.149 36.0246L133.119 36.0119L133.138 36.0272C132.985 35.9723 132.829 35.9271 132.671 35.8917C132.512 35.8577 132.35 35.8408 132.187 35.8414C131.977 35.8366 131.767 35.8705 131.569 35.9413C131.406 36.002 131.261 36.1009 131.145 36.2295C131.031 36.3625 130.948 36.5191 130.902 36.6881C130.848 36.8889 130.822 37.0965 130.825 37.3046C130.823 37.5096 130.851 37.7138 130.908 37.9108C130.958 38.0887 131.045 38.2541 131.162 38.3968C131.278 38.5359 131.424 38.6472 131.588 38.7225C131.777 38.8065 131.983 38.8476 132.189 38.8427C132.366 38.8427 132.542 38.8199 132.712 38.7747C132.884 38.7301 133.054 38.6786 133.221 38.6226H133.216L133.266 38.6125L133.339 38.65L133.357 38.7327L133.348 38.8593Z" fill="white"/>
<path d="M136.454 38.9668V39.0145L136.429 39.0571L136.399 39.0896L136.359 39.1099H134.877L134.837 39.0896L134.809 39.0527L134.786 39.0151V35.6729L134.809 35.6302L134.837 35.5927L134.877 35.573H135.012L135.072 35.6131L135.113 35.6729V38.8052H135.778C135.875 38.8052 135.969 38.802 136.068 38.795C136.167 38.7881 136.259 38.7849 136.359 38.7849L136.439 38.8275L136.459 38.9204L136.454 38.9668Z" fill="white"/>
<path d="M140.267 36.8065C140.262 37.1487 140.247 37.492 140.219 37.8364C140.205 38.0165 140.168 38.1942 140.109 38.365C140.056 38.5165 139.974 38.6561 139.868 38.776C139.762 38.8937 139.63 38.9855 139.483 39.0444C139.312 39.1113 139.13 39.1437 138.947 39.1398C138.754 39.1448 138.563 39.1159 138.381 39.0546C138.236 39.0038 138.106 38.9177 138.003 38.8039C137.9 38.6852 137.823 38.546 137.778 38.3955C137.723 38.2153 137.688 38.0295 137.674 37.8415C137.648 37.5022 137.632 37.1629 137.627 36.8237C137.622 36.4844 137.62 36.1451 137.62 35.8058V35.6703L137.657 35.6099L137.714 35.5698H137.85L137.91 35.6099L137.95 35.6703C137.95 36.0274 137.948 36.3856 137.945 36.7448C137.942 37.1038 137.958 37.4627 137.995 37.8198C138.006 37.9615 138.032 38.1017 138.072 38.2378C138.107 38.3539 138.164 38.462 138.24 38.5559C138.316 38.6459 138.412 38.7162 138.521 38.7607C138.656 38.8132 138.801 38.8379 138.946 38.8332C139.084 38.8364 139.221 38.809 139.347 38.7531C139.457 38.7025 139.554 38.6282 139.632 38.5355C139.71 38.4415 139.771 38.3336 139.809 38.2174C139.852 38.0899 139.882 37.9581 139.898 37.8243C139.924 37.592 139.938 37.3584 139.94 37.1245C139.94 36.8909 139.94 36.6587 139.94 36.428V35.6646L139.981 35.6042L140.041 35.5641H140.176L140.234 35.6042L140.271 35.6646V35.7696C140.271 36.1135 140.268 36.4568 140.263 36.7995" fill="white"/>
<path d="M143.625 38.6506C143.57 38.7602 143.491 38.8554 143.393 38.9286C143.291 39.0038 143.175 39.0583 143.052 39.0889C142.92 39.1229 142.785 39.1398 142.649 39.1392C142.506 39.1394 142.363 39.1294 142.221 39.1093C142.079 39.0895 141.939 39.056 141.803 39.0094L141.74 38.9242V38.7441L141.764 38.6805L141.828 38.6506L141.925 38.678L142.018 38.7257C142.117 38.7626 142.219 38.792 142.323 38.8135C142.428 38.8352 142.534 38.8461 142.641 38.8459C142.731 38.8458 142.821 38.8349 142.909 38.8135C142.994 38.7933 143.076 38.7585 143.149 38.7104C143.22 38.6645 143.279 38.6027 143.322 38.5298C143.367 38.4488 143.389 38.3571 143.386 38.2645C143.392 38.1243 143.349 37.9863 143.265 37.8739C143.182 37.7706 143.08 37.6833 142.965 37.6163C142.838 37.5417 142.707 37.4756 142.572 37.4184C142.434 37.3604 142.302 37.2882 142.179 37.2028C142.059 37.1202 141.957 37.0147 141.878 36.8923C141.792 36.7455 141.75 36.577 141.758 36.407C141.754 36.2755 141.781 36.1449 141.836 36.0253C141.884 35.9208 141.956 35.8289 142.046 35.7568C142.138 35.6851 142.244 35.6318 142.356 35.5997C142.479 35.5638 142.606 35.546 142.734 35.5469C142.863 35.5469 142.991 35.5552 143.119 35.5717C143.248 35.5879 143.374 35.6182 143.496 35.662L143.559 35.7467V35.9019L143.536 35.9655L143.473 35.9954L143.423 35.9852L143.433 35.9903C143.363 35.9706 143.302 35.9509 143.25 35.933L143.1 35.8853C143.049 35.8713 142.997 35.8605 142.944 35.8529C142.877 35.8435 142.81 35.8392 142.742 35.8402C142.658 35.8397 142.574 35.8497 142.492 35.8701C142.415 35.8882 142.343 35.9213 142.279 35.9674C142.217 36.0124 142.167 36.0707 142.131 36.1379C142.091 36.2168 142.072 36.3042 142.075 36.3923C142.069 36.5299 142.111 36.6653 142.196 36.774C142.282 36.8737 142.384 36.9577 142.499 37.0221C142.625 37.094 142.757 37.1578 142.892 37.2129C143.03 37.2705 143.162 37.3431 143.285 37.4292C143.407 37.5136 143.51 37.6218 143.588 37.7473C143.675 37.898 143.716 38.0701 143.709 38.2435C143.713 38.383 143.683 38.5215 143.623 38.6474" fill="white"/>
<path d="M146.184 39.0743L146.129 39.1143H145.175L145.12 39.0743L145.081 39.0189V38.9038L145.12 38.8484L145.175 38.8084H145.493V35.6716L145.53 35.6111L145.587 35.571H145.723L145.781 35.6111L145.817 35.6716V38.8084H146.128L146.183 38.8484L146.223 38.9038V39.0189L146.184 39.0743Z" fill="white"/>
<path d="M150.187 35.8146C150.149 35.9062 150.102 36.0252 150.044 36.1728C149.985 36.3204 149.916 36.4858 149.838 36.6709C149.759 36.856 149.68 37.0481 149.597 37.2472C149.515 37.4463 149.433 37.6435 149.353 37.8388C149.272 38.0341 149.196 38.2142 149.125 38.3795C149.054 38.5449 148.995 38.6893 148.944 38.8102C148.894 38.9311 148.859 39.0182 148.839 39.0685L148.775 39.1086H148.619L148.556 39.0685L147.939 37.3395C147.926 37.3057 147.902 37.2434 147.869 37.1486C147.836 37.0538 147.797 36.9514 147.754 36.8305C147.71 36.7097 147.664 36.5837 147.616 36.4489C147.569 36.314 147.523 36.1944 147.484 36.0831C147.445 35.9718 147.41 35.8751 147.383 35.7949C147.366 35.7496 147.352 35.7027 147.343 35.655L147.386 35.5774L147.474 35.5602H147.534H147.594L147.664 35.6003L148.71 38.5768C148.911 38.0789 149.113 37.5829 149.316 37.0888C149.519 36.5948 149.723 36.0986 149.927 35.6003L149.991 35.5602H150.151L150.215 35.5856L150.24 35.6492C150.225 35.7014 150.207 35.7524 150.185 35.8019" fill="white"/>
<path d="M152.024 36.0621L151.515 37.4546H152.513L152.024 36.0621ZM153.351 39.0965L153.266 39.1136L153.146 39.1092L153.082 39.0691L152.605 37.7612H151.413C151.259 38.2018 151.1 38.6378 150.937 39.0691L150.873 39.1092H150.723L150.653 39.0863L150.618 39.0227C150.83 38.4518 151.038 37.8838 151.242 37.3185C151.446 36.7531 151.649 36.1836 151.85 35.6098L151.913 35.5697H152.124L152.194 35.6098L152.775 37.2739C152.788 37.3108 152.812 37.3782 152.847 37.4768C152.883 37.5754 152.924 37.6868 152.97 37.8102C153.017 37.9336 153.065 38.0646 153.113 38.1982C153.162 38.3318 153.207 38.4603 153.249 38.5799C153.29 38.6995 153.325 38.7968 153.352 38.8776C153.37 38.9256 153.383 38.9752 153.391 39.0258L153.351 39.0965Z" fill="white"/>
</svg>
